<svg width="636" height="380" viewBox="0 0 636 380" fill="none" xmlns="http://www.w3.org/2000/svg">
<g clip-path="url(#clip0_1880_584)">
<path d="M0.000558853 380H22.7148L22.7148 0L0.000558853 380Z" fill="url(#paint0_linear_1880_584)"/>
<path d="M22.7154 380H45.4297L45.4297 0L22.7154 380Z" fill="url(#paint1_linear_1880_584)"/>
<path d="M45.4302 380H68.1445L68.1445 0L45.4302 380Z" fill="url(#paint2_linear_1880_584)"/>
<path d="M68.1412 380H90.8555L90.8555 0L68.1412 380Z" fill="url(#paint3_linear_1880_584)"/>
<path d="M90.856 380H113.57L113.57 0L90.856 380Z" fill="url(#paint4_linear_1880_584)"/>
<path d="M113.571 380H136.285L136.285 0L113.571 380Z" fill="url(#paint5_linear_1880_584)"/>
<path d="M136.286 380H159L159 0L136.286 380Z" fill="url(#paint6_linear_1880_584)"/>
<path d="M159.001 380H181.715L181.715 0L159.001 380Z" fill="url(#paint7_linear_1880_584)"/>
<path d="M181.715 380H204.43L204.43 0L181.715 380Z" fill="url(#paint8_linear_1880_584)"/>
<path d="M204.43 380H227.145L227.145 0L204.43 380Z" fill="url(#paint9_linear_1880_584)"/>
<path d="M227.141 380H249.855L249.855 0L227.141 380Z" fill="url(#paint10_linear_1880_584)"/>
<path d="M249.856 380H272.57V0L249.856 380Z" fill="url(#paint11_linear_1880_584)"/>
<path d="M272.571 380H295.285V0L272.571 380Z" fill="url(#paint12_linear_1880_584)"/>
<path d="M295.286 380H318V0L295.286 380Z" fill="url(#paint13_linear_1880_584)"/>
<path d="M318.001 380H340.715V0L318.001 380Z" fill="url(#paint14_linear_1880_584)"/>
<path d="M340.715 380H363.43V0L340.715 380Z" fill="url(#paint15_linear_1880_584)"/>
<path d="M363.43 380H386.145V0L363.43 380Z" fill="url(#paint16_linear_1880_584)"/>
<path d="M386.141 380H408.855V0L386.141 380Z" fill="url(#paint17_linear_1880_584)"/>
<path d="M408.856 380H431.57V0L408.856 380Z" fill="url(#paint18_linear_1880_584)"/>
<path d="M431.571 380H454.285V0L431.571 380Z" fill="url(#paint19_linear_1880_584)"/>
<path d="M454.286 380H477V0L454.286 380Z" fill="url(#paint20_linear_1880_584)"/>
<path d="M477.001 380H499.715V0L477.001 380Z" fill="url(#paint21_linear_1880_584)"/>
<path d="M499.715 380H522.43V0L499.715 380Z" fill="url(#paint22_linear_1880_584)"/>
<path d="M522.43 380H545.145V0L522.43 380Z" fill="url(#paint23_linear_1880_584)"/>
<path d="M545.141 380H567.855V0L545.141 380Z" fill="url(#paint24_linear_1880_584)"/>
<path d="M567.856 380H590.57V0L567.856 380Z" fill="url(#paint25_linear_1880_584)"/>
<path d="M590.571 380H613.285V0L590.571 380Z" fill="url(#paint26_linear_1880_584)"/>
<path d="M613.286 380H636V0L613.286 380Z" fill="url(#paint27_linear_1880_584)"/>
</g>
<defs>
<linearGradient id="paint0_linear_1880_584" x1="-5.01194" y1="-0.000228027" x2="46.098" y2="2.47978" gradientUnits="userSpaceOnUse">
<stop offset="0.152213" stop-opacity="0"/>
<stop offset="1" stop-color="#565656"/>
</linearGradient>
<linearGradient id="paint1_linear_1880_584" x1="17.7029" y1="-0.000228027" x2="68.8129" y2="2.47978" gradientUnits="userSpaceOnUse">
<stop offset="0.152213" stop-opacity="0"/>
<stop offset="1" stop-color="#565656"/>
</linearGradient>
<linearGradient id="paint2_linear_1880_584" x1="40.4178" y1="-0.000228027" x2="91.5277" y2="2.47978" gradientUnits="userSpaceOnUse">
<stop offset="0.152213" stop-opacity="0"/>
<stop offset="1" stop-color="#565656"/>
</linearGradient>
<linearGradient id="paint3_linear_1880_584" x1="63.1287" y1="-0.000228027" x2="114.239" y2="2.47978" gradientUnits="userSpaceOnUse">
<stop offset="0.152213" stop-opacity="0"/>
<stop offset="1" stop-color="#565656"/>
</linearGradient>
<linearGradient id="paint4_linear_1880_584" x1="85.8435" y1="-0.000228027" x2="136.953" y2="2.47978" gradientUnits="userSpaceOnUse">
<stop offset="0.152213" stop-opacity="0"/>
<stop offset="1" stop-color="#565656"/>
</linearGradient>
<linearGradient id="paint5_linear_1880_584" x1="108.558" y1="-0.000228027" x2="159.668" y2="2.47978" gradientUnits="userSpaceOnUse">
<stop offset="0.152213" stop-opacity="0"/>
<stop offset="1" stop-color="#565656"/>
</linearGradient>
<linearGradient id="paint6_linear_1880_584" x1="131.273" y1="-0.000228027" x2="182.383" y2="2.47978" gradientUnits="userSpaceOnUse">
<stop offset="0.152213" stop-opacity="0"/>
<stop offset="1" stop-color="#565656"/>
</linearGradient>
<linearGradient id="paint7_linear_1880_584" x1="153.988" y1="-0.000228027" x2="205.098" y2="2.47978" gradientUnits="userSpaceOnUse">
<stop offset="0.152213" stop-opacity="0"/>
<stop offset="1" stop-color="#565656"/>
</linearGradient>
<linearGradient id="paint8_linear_1880_584" x1="176.703" y1="-0.000228027" x2="227.813" y2="2.47978" gradientUnits="userSpaceOnUse">
<stop offset="0.152213" stop-opacity="0"/>
<stop offset="1" stop-color="#565656"/>
</linearGradient>
<linearGradient id="paint9_linear_1880_584" x1="199.418" y1="-0.000228027" x2="250.528" y2="2.47978" gradientUnits="userSpaceOnUse">
<stop offset="0.152213" stop-opacity="0"/>
<stop offset="1" stop-color="#565656"/>
</linearGradient>
<linearGradient id="paint10_linear_1880_584" x1="222.129" y1="-0.000228027" x2="273.239" y2="2.47978" gradientUnits="userSpaceOnUse">
<stop offset="0.152213" stop-opacity="0"/>
<stop offset="1" stop-color="#565656"/>
</linearGradient>
<linearGradient id="paint11_linear_1880_584" x1="244.844" y1="-0.000228027" x2="295.953" y2="2.47977" gradientUnits="userSpaceOnUse">
<stop offset="0.152213" stop-opacity="0"/>
<stop offset="1" stop-color="#565656"/>
</linearGradient>
<linearGradient id="paint12_linear_1880_584" x1="267.558" y1="-0.000228027" x2="318.668" y2="2.47977" gradientUnits="userSpaceOnUse">
<stop offset="0.152213" stop-opacity="0"/>
<stop offset="1" stop-color="#565656"/>
</linearGradient>
<linearGradient id="paint13_linear_1880_584" x1="290.273" y1="-0.000228027" x2="341.383" y2="2.47977" gradientUnits="userSpaceOnUse">
<stop offset="0.152213" stop-opacity="0"/>
<stop offset="1" stop-color="#565656"/>
</linearGradient>
<linearGradient id="paint14_linear_1880_584" x1="312.988" y1="-0.000228027" x2="364.098" y2="2.47977" gradientUnits="userSpaceOnUse">
<stop offset="0.152213" stop-opacity="0"/>
<stop offset="1" stop-color="#565656"/>
</linearGradient>
<linearGradient id="paint15_linear_1880_584" x1="335.703" y1="-0.000228027" x2="386.813" y2="2.47978" gradientUnits="userSpaceOnUse">
<stop offset="0.152213" stop-opacity="0"/>
<stop offset="1" stop-color="#565656"/>
</linearGradient>
<linearGradient id="paint16_linear_1880_584" x1="358.418" y1="-0.000228027" x2="409.528" y2="2.47977" gradientUnits="userSpaceOnUse">
<stop offset="0.152213" stop-opacity="0"/>
<stop offset="1" stop-color="#565656"/>
</linearGradient>
<linearGradient id="paint17_linear_1880_584" x1="381.129" y1="-0.000228027" x2="432.239" y2="2.47977" gradientUnits="userSpaceOnUse">
<stop offset="0.152213" stop-opacity="0"/>
<stop offset="1" stop-color="#565656"/>
</linearGradient>
<linearGradient id="paint18_linear_1880_584" x1="403.844" y1="-0.000228027" x2="454.953" y2="2.47977" gradientUnits="userSpaceOnUse">
<stop offset="0.152213" stop-opacity="0"/>
<stop offset="1" stop-color="#565656"/>
</linearGradient>
<linearGradient id="paint19_linear_1880_584" x1="426.558" y1="-0.000228027" x2="477.668" y2="2.47977" gradientUnits="userSpaceOnUse">
<stop offset="0.152213" stop-opacity="0"/>
<stop offset="1" stop-color="#565656"/>
</linearGradient>
<linearGradient id="paint20_linear_1880_584" x1="449.273" y1="-0.000228027" x2="500.383" y2="2.47977" gradientUnits="userSpaceOnUse">
<stop offset="0.152213" stop-opacity="0"/>
<stop offset="1" stop-color="#565656"/>
</linearGradient>
<linearGradient id="paint21_linear_1880_584" x1="471.988" y1="-0.000228027" x2="523.098" y2="2.47977" gradientUnits="userSpaceOnUse">
<stop offset="0.152213" stop-opacity="0"/>
<stop offset="1" stop-color="#565656"/>
</linearGradient>
<linearGradient id="paint22_linear_1880_584" x1="494.703" y1="-0.000228027" x2="545.813" y2="2.47977" gradientUnits="userSpaceOnUse">
<stop offset="0.152213" stop-opacity="0"/>
<stop offset="1" stop-color="#565656"/>
</linearGradient>
<linearGradient id="paint23_linear_1880_584" x1="517.418" y1="-0.000228027" x2="568.528" y2="2.47977" gradientUnits="userSpaceOnUse">
<stop offset="0.152213" stop-opacity="0"/>
<stop offset="1" stop-color="#565656"/>
</linearGradient>
<linearGradient id="paint24_linear_1880_584" x1="540.129" y1="-0.000228027" x2="591.239" y2="2.47977" gradientUnits="userSpaceOnUse">
<stop offset="0.152213" stop-opacity="0"/>
<stop offset="1" stop-color="#565656"/>
</linearGradient>
<linearGradient id="paint25_linear_1880_584" x1="562.844" y1="-0.000228027" x2="613.953" y2="2.47977" gradientUnits="userSpaceOnUse">
<stop offset="0.152213" stop-opacity="0"/>
<stop offset="1" stop-color="#565656"/>
</linearGradient>
<linearGradient id="paint26_linear_1880_584" x1="585.558" y1="-0.000228027" x2="636.668" y2="2.47977" gradientUnits="userSpaceOnUse">
<stop offset="0.152213" stop-opacity="0"/>
<stop offset="1" stop-color="#565656"/>
</linearGradient>
<linearGradient id="paint27_linear_1880_584" x1="608.273" y1="-0.000228027" x2="659.383" y2="2.47977" gradientUnits="userSpaceOnUse">
<stop offset="0.152213" stop-opacity="0"/>
<stop offset="1" stop-color="#565656"/>
</linearGradient>
<clipPath id="clip0_1880_584">
<rect width="636" height="380" rx="32" fill="white"/>
</clipPath>
</defs>
</svg>
