<svg width="40" height="40" viewBox="0 0 40 40" fill="none" xmlns="http://www.w3.org/2000/svg">
<path d="M9.33333 28H30.6667C31.4 28 32 27.4 32 26.6667C32 25.9333 31.4 25.3333 30.6667 25.3333H9.33333C8.6 25.3333 8 25.9333 8 26.6667C8 27.4 8.6 28 9.33333 28ZM9.33333 21.3333H30.6667C31.4 21.3333 32 20.7333 32 20C32 19.2667 31.4 18.6667 30.6667 18.6667H9.33333C8.6 18.6667 8 19.2667 8 20C8 20.7333 8.6 21.3333 9.33333 21.3333ZM8 13.3333C8 14.0667 8.6 14.6667 9.33333 14.6667H30.6667C31.4 14.6667 32 14.0667 32 13.3333C32 12.6 31.4 12 30.6667 12H9.33333C8.6 12 8 12.6 8 13.3333Z" fill="#252525"/>
</svg>
