<svg width="20" height="20" viewBox="0 0 20 20" fill="none" xmlns="http://www.w3.org/2000/svg">
<path d="M10.8333 15.3333H10.3333V15.8333V17H9.66667V13H10.3333V14.1667V14.6667H10.8333H17V15.3333H10.8333ZM5.83333 9.66667H6.33333V9.16667V8H7V12H6.33333V10.8333V10.3333H5.83333H3V9.66667H5.83333ZM14.1667 5.33333H13.6667V5.83333V7H13V3H13.6667V4.16667V4.66667H14.1667H17V5.33333H14.1667ZM7 15.3333H3V14.6667H7V15.3333ZM10.3333 5.33333H3V4.66667H10.3333V5.33333ZM9.66667 9.66667H17V10.3333H9.66667V9.66667Z" fill="#D7D7D7" stroke="#D7D7D7"/>
</svg>
