<svg width="50" height="40" viewBox="0 0 50 40" fill="none" xmlns="http://www.w3.org/2000/svg">
<g clip-path="url(#clip0_1530_7386)">
<path d="M27.4884 8.816H21.8324V4.032C23.1844 4.56 24.3444 4.824 25.3204 4.824C26.2324 4.824 27.0724 4.608 27.8324 4.176C28.5924 3.744 29.1604 3.16 29.5524 2.424C29.8324 1.872 29.9924 1.064 30.0404 0H29.2484C29.0324 0.672 28.7284 1.16 28.3444 1.456C27.9604 1.752 27.4884 1.896 26.9364 1.896C25.6724 1.896 24.0564 1.264 22.0804 0C21.4164 0.976 20.7924 1.72 20.2004 2.24C19.3124 3 18.2084 3.656 16.8964 4.2C15.5844 4.752 14.2484 5.024 12.9044 5.024L11.6564 4.968V8.816C11.2724 8.808 10.9844 8.8 10.7924 8.8C8.44038 8.8 6.60838 9.392 5.28038 10.568C4.49638 11.264 3.86438 12.408 3.38438 13.992L4.08038 14.288C4.72837 13.28 5.50438 12.56 6.40038 12.128C7.29638 11.704 8.67238 11.488 10.5284 11.488L11.6484 11.504V23.608C11.6484 25.608 11.6004 26.92 11.5124 27.552C11.4244 28.184 11.2164 28.656 10.9044 28.96C10.5924 29.264 10.2484 29.424 9.87238 29.424C9.65638 29.424 9.43237 29.392 9.19238 29.312C8.96038 29.24 8.31238 28.968 7.24838 28.496C5.74438 27.848 4.51237 27.52 3.56037 27.52C2.88837 27.52 2.25638 27.72 1.66437 28.12C1.07237 28.52 0.616375 29.104 0.288375 29.88C0.080375 30.36 -0.015625 31.024 -0.015625 31.856L0.752375 32.04C0.864375 31.504 1.04838 31.12 1.31237 30.88C1.57638 30.64 1.88038 30.52 2.21638 30.52C2.60037 30.52 3.98438 30.968 6.36838 31.856L13.9284 29.32C14.8324 29.016 16.0244 28.52 17.5044 27.816C18.5364 27.336 19.4004 26.736 20.0884 26.024C20.7764 25.312 21.2324 24.568 21.4724 23.792C21.7044 23.016 21.8244 21.776 21.8244 20.08V11.496H26.4404L27.4804 8.808L27.4884 8.816ZM18.1284 19.68C18.1284 21.64 17.9684 23.112 17.6564 24.096C17.3444 25.08 16.7204 25.992 15.7844 26.84C14.8484 27.688 13.5924 28.4 12.0164 28.976C12.9604 28.088 13.6324 27.36 14.0324 26.8C14.4244 26.24 14.7284 25.648 14.9284 25.024C15.0564 24.6 15.1524 23.984 15.2164 23.168C15.3124 21.768 15.3604 20.824 15.3604 20.312V5.76C16.3924 5.528 17.3204 5.2 18.1204 4.768V19.68H18.1284Z" fill="#252525"/>
<path d="M48.8497 34.744L47.0417 36.368C45.6977 35.424 44.4737 34.768 43.3697 34.384C42.2657 34.008 41.0257 33.816 39.6417 33.816C38.1297 33.816 36.4177 34.128 34.5137 34.744C37.4177 32.264 39.2577 30.36 40.0497 29.024C40.8337 27.696 41.2337 26.144 41.2337 24.376C41.2337 23.064 41.1137 21.376 40.8737 19.304C40.7457 18.104 40.6737 17.176 40.6737 16.544C40.6737 15.376 41.0177 14.496 41.7057 13.896C42.3937 13.296 43.4257 12.896 44.8097 12.696L44.3697 12.04C43.1137 12.08 42.1777 12.176 41.5617 12.328C40.7457 12.544 40.0017 12.896 39.3297 13.376C38.6577 13.856 38.1137 14.52 37.7057 15.36C37.2977 16.2 37.0977 17.056 37.0977 17.928C37.0977 18.904 37.1777 20.104 37.3457 21.528C37.5137 22.952 37.6017 24.264 37.6017 25.456C37.6017 27.56 37.1137 29.456 36.1297 31.144C35.1537 32.832 33.5377 34.472 31.2897 36.072C32.7617 34.216 33.7857 32.584 34.3457 31.168C34.9057 29.752 35.1937 28.176 35.1937 26.432C35.1937 25.616 35.0737 24.064 34.8337 21.776C34.7137 20.56 34.6497 19.488 34.6497 18.56C34.6497 17.312 34.8897 16.24 35.3777 15.368C35.8657 14.488 36.7057 13.6 37.8977 12.696L37.3617 12.04C36.2577 12.904 35.0897 13.344 33.8657 13.344C33.1937 13.344 32.2497 13.128 31.0417 12.696C29.8337 12.264 28.9457 12.048 28.3617 12.048C27.0977 12.048 26.0177 12.48 25.1137 13.336C24.2097 14.2 23.7617 15.208 23.7617 16.376C23.7617 16.752 23.8337 17.216 23.9697 17.784L24.7537 17.504C24.6417 17.224 24.5937 16.984 24.5937 16.784C24.5937 16.232 24.8097 15.76 25.2337 15.36C25.6577 14.96 26.1857 14.768 26.8097 14.768C27.1377 14.768 27.5697 14.856 28.1297 15.024C29.3457 15.4 30.3457 15.584 31.1377 15.584C31.9297 15.584 32.9217 15.376 34.0737 14.968C33.0017 16.08 32.2417 17.144 31.8097 18.168C31.3697 19.192 31.1537 20.44 31.1537 21.896C31.1537 22.392 31.1857 23.008 31.2657 23.744C31.0257 23.68 30.7937 23.632 30.5777 23.592C30.3617 23.56 30.1617 23.544 29.9857 23.544C29.1457 23.544 28.3457 23.744 27.6017 24.136C27.1297 24.376 26.6737 24.792 26.2257 25.376L26.8657 25.816C27.5057 25.336 28.1217 25.096 28.7217 25.096C29.5617 25.096 30.2737 25.376 30.8497 25.944C31.4257 26.512 31.7137 27.176 31.7137 27.952C31.7137 28.12 31.6977 28.344 31.6737 28.616C31.3697 28.448 31.0737 28.328 30.7697 28.248C30.4657 28.168 30.1777 28.128 29.8817 28.128C29.3857 28.128 28.9537 28.208 28.5857 28.36C28.2177 28.512 27.8017 28.792 27.3537 29.184L27.9057 29.72C28.3377 29.512 28.7217 29.416 29.0577 29.416C29.7297 29.416 30.3217 29.688 30.8417 30.24C31.3537 30.784 31.6177 31.472 31.6177 32.288C31.6177 33.104 31.2577 34.056 30.5537 35.024C29.8417 35.992 28.3937 37.28 26.2177 38.896L26.5857 39.408C28.7777 38.328 30.5617 37.6 31.9537 37.224C33.3457 36.848 34.8257 36.664 36.4017 36.664C38.0977 36.664 39.5777 36.88 40.8497 37.32C42.1217 37.76 43.3937 38.456 44.6657 39.408L49.3537 35.384L48.8257 34.752L48.8497 34.744Z" fill="#252525"/>
</g>
<defs>
<clipPath id="clip0_1530_7386">
<rect width="49.6" height="40" rx="6.4" fill="white"/>
</clipPath>
</defs>
</svg>
