<svg width="70" height="58" viewBox="0 0 70 58" fill="none" xmlns="http://www.w3.org/2000/svg">
<path d="M17.3293 50.1919V47.3312C17.3461 47.0906 17.3114 46.8492 17.2275 46.6231C17.1436 46.3969 17.0125 46.1913 16.8429 46.0198C16.6732 45.8484 16.469 45.7151 16.2438 45.6288C16.0185 45.5426 15.7775 45.5053 15.5367 45.5195C15.2216 45.499 14.9068 45.5634 14.625 45.7059C14.3433 45.8485 14.1049 46.064 13.9348 46.33C13.7798 46.0719 13.558 45.8604 13.2929 45.7178C13.0277 45.5752 12.729 45.5067 12.4282 45.5195C12.166 45.5063 11.9049 45.5619 11.6708 45.6806C11.4366 45.7994 11.2376 45.9772 11.0933 46.1965V45.634H10.1016V50.1919H11.1028V47.6649C11.0811 47.509 11.0943 47.3502 11.1413 47.2C11.1883 47.0498 11.268 46.9118 11.3747 46.796C11.4813 46.6802 11.6123 46.5895 11.7582 46.5304C11.9041 46.4713 12.0612 46.4452 12.2184 46.454C12.8764 46.454 13.2101 46.8831 13.2101 47.6554V50.1919H14.2113V47.6649C14.1913 47.5093 14.2056 47.3512 14.2532 47.2016C14.3008 47.0521 14.3806 46.9148 14.4869 46.7994C14.5932 46.684 14.7235 46.5933 14.8687 46.5336C15.0138 46.4739 15.1702 46.4468 15.327 46.454C16.0039 46.454 16.3281 46.8831 16.3281 47.6554V50.1919H17.3293ZM32.1472 45.634H30.5263V44.2513H29.5251V45.634H28.6001V46.5398H29.5251V48.6185C29.5251 49.6769 29.9351 50.3063 31.1079 50.3063C31.5461 50.3076 31.9757 50.1853 32.3475 49.9534L32.0615 49.1048C31.7955 49.2634 31.4937 49.352 31.1842 49.3623C30.6883 49.3623 30.5263 49.057 30.5263 48.5995V46.5398H32.1472V45.634ZM40.6051 45.5195C40.3633 45.5124 40.1241 45.5706 39.9126 45.6881C39.7012 45.8056 39.5254 45.9779 39.4037 46.187V45.634H38.4215V50.1919H39.4132V47.6363C39.4132 46.8831 39.7374 46.4635 40.3858 46.4635C40.5979 46.4606 40.8085 46.4995 41.0056 46.5779L41.3107 45.6435C41.0842 45.5624 40.8456 45.5205 40.6051 45.5195ZM27.8182 45.9963C27.2569 45.6625 26.6115 45.497 25.9588 45.5195C24.8051 45.5195 24.0613 46.0726 24.0613 46.9784C24.0613 47.7222 24.6144 48.1799 25.6346 48.3229L26.1018 48.3896C26.6453 48.4658 26.9028 48.6089 26.9028 48.8664C26.9028 49.2192 26.5404 49.4195 25.8635 49.4195C25.3189 49.4351 24.7849 49.2672 24.3473 48.9426L23.8801 49.715C24.4578 50.1184 25.1497 50.3257 25.8539 50.3063C27.1698 50.3063 27.9326 49.6864 27.9326 48.8187C27.9326 48.0177 27.3319 47.5982 26.3403 47.4551L25.8731 47.3884C25.4439 47.3312 25.1007 47.2455 25.1007 46.9403C25.1007 46.6066 25.4248 46.4063 25.9684 46.4063C26.4675 46.4138 26.9564 46.5484 27.3891 46.7972L27.8182 45.9963ZM54.3836 45.5195C54.1418 45.5124 53.9026 45.5706 53.6912 45.6881C53.4797 45.8056 53.3039 45.9779 53.1822 46.187V45.634H52.2001V50.1919H53.1917V47.6363C53.1917 46.8831 53.5159 46.4635 54.1643 46.4635C54.3764 46.4606 54.5871 46.4995 54.7842 46.5779L55.0893 45.6435C54.8628 45.5624 54.6242 45.5205 54.3836 45.5195ZM41.6063 47.9128C41.5931 48.2339 41.6473 48.5542 41.7653 48.8531C41.8834 49.152 42.0627 49.4229 42.2917 49.6483C42.5207 49.8738 42.7944 50.0488 43.0951 50.1621C43.3959 50.2754 43.717 50.3245 44.0378 50.3063C44.6332 50.3362 45.2182 50.1423 45.6779 49.7627L45.2011 48.9617C44.8583 49.2231 44.4403 49.3669 44.0092 49.3717C43.6376 49.3492 43.2886 49.1857 43.0334 48.9146C42.7783 48.6434 42.6362 48.2852 42.6362 47.9129C42.6362 47.5406 42.7783 47.1823 43.0334 46.9112C43.2886 46.6401 43.6376 46.4765 44.0092 46.454C44.4403 46.4589 44.8583 46.6027 45.2011 46.864L45.6779 46.063C45.2182 45.6835 44.6332 45.4896 44.0378 45.5195C43.717 45.5013 43.3959 45.5504 43.0952 45.6637C42.7945 45.777 42.5208 45.952 42.2918 46.1774C42.0627 46.4028 41.8834 46.6737 41.7654 46.9725C41.6473 47.2714 41.5931 47.5917 41.6063 47.9128ZM50.8937 47.9128V45.634H49.902V46.187C49.7328 45.9689 49.5137 45.7944 49.2632 45.6783C49.0127 45.5622 48.738 45.5077 48.4622 45.5195C47.8477 45.5497 47.2684 45.815 46.8441 46.2605C46.4199 46.7061 46.1833 47.2977 46.1833 47.9129C46.1833 48.5281 46.4199 49.1198 46.8441 49.5653C47.2684 50.0109 47.8477 50.2762 48.4622 50.3063C48.738 50.3181 49.0127 50.2636 49.2632 50.1475C49.5137 50.0313 49.7328 49.8569 49.902 49.6387V50.1919H50.8937V47.9128ZM47.2035 47.9128C47.2189 47.6438 47.3127 47.3853 47.4732 47.169C47.6338 46.9526 47.8542 46.7881 48.1072 46.6955C48.3602 46.603 48.6348 46.5865 48.897 46.6481C49.1593 46.7097 49.3978 46.8467 49.5831 47.0423C49.7684 47.2378 49.8924 47.4833 49.9399 47.7485C49.9874 48.0137 49.9562 48.2869 49.8502 48.5346C49.7442 48.7823 49.568 48.9935 49.3434 49.1423C49.1188 49.291 48.8556 49.3708 48.5862 49.3717C48.3974 49.3743 48.2101 49.3377 48.0361 49.2643C47.8621 49.1909 47.7052 49.0822 47.5753 48.9451C47.4454 48.8081 47.3453 48.6456 47.2813 48.4679C47.2173 48.2902 47.1908 48.1012 47.2035 47.9128ZM35.2367 45.5195C34.6183 45.5521 34.0365 45.8229 33.6134 46.2751C33.1904 46.7273 32.9589 47.3258 32.9675 47.945C32.9761 48.5642 33.2242 49.1561 33.6598 49.5963C34.0953 50.0365 34.6844 50.291 35.3035 50.3063C35.9838 50.3302 36.6491 50.1027 37.1724 49.6673L36.6861 48.9332C36.3095 49.2349 35.8432 49.4027 35.3607 49.4099C35.033 49.4375 34.7074 49.3364 34.4529 49.1282C34.1984 48.92 34.035 48.6209 33.9971 48.2942H37.3822C37.3917 48.1703 37.4012 48.0464 37.4012 47.9128C37.3917 46.4921 36.5145 45.5195 35.2367 45.5195ZM35.2176 46.4063C35.5172 46.4005 35.8068 46.5136 36.0231 46.7209C36.2393 46.9283 36.3646 47.2129 36.3714 47.5124H34.0067C34.0241 47.2064 34.1605 46.9194 34.3868 46.7127C34.6131 46.5059 34.9113 46.396 35.2176 46.4063ZM60.0953 47.9128V43.8032H59.1036V46.187C58.9343 45.9689 58.7153 45.7944 58.4648 45.6783C58.2143 45.5622 57.9396 45.5077 57.6638 45.5195C57.0493 45.5496 56.4699 45.8149 56.0457 46.2605C55.6214 46.706 55.3848 47.2977 55.3848 47.9129C55.3848 48.5281 55.6214 49.1198 56.0457 49.5653C56.4699 50.0109 57.0493 50.2762 57.6638 50.3063C57.9396 50.3181 58.2143 50.2636 58.4648 50.1475C58.7153 50.0313 58.9343 49.8569 59.1036 49.6387V50.1919H60.0953V47.9128ZM61.7484 49.5313C61.81 49.5309 61.871 49.543 61.9278 49.5669C61.9823 49.5896 62.0321 49.6226 62.0743 49.664C62.1162 49.7053 62.1498 49.7543 62.1731 49.8083C62.1969 49.8639 62.2092 49.9236 62.2092 49.9841C62.2092 50.0445 62.1969 50.1043 62.1731 50.1598C62.1496 50.2136 62.1161 50.2624 62.0743 50.3036C62.032 50.345 61.9823 50.3781 61.9278 50.4012C61.8711 50.4255 61.81 50.4378 61.7484 50.4374C61.6576 50.4383 61.5687 50.4125 61.4925 50.3631C61.4164 50.3137 61.3565 50.243 61.3204 50.1598C61.2966 50.1043 61.2843 50.0445 61.2843 49.9841C61.2843 49.9237 61.2966 49.8639 61.3204 49.8083C61.3436 49.7544 61.377 49.7054 61.4187 49.664C61.4609 49.6223 61.5109 49.5893 61.5658 49.5669C61.6237 49.5429 61.6857 49.5308 61.7484 49.5313ZM61.7484 50.3374C61.7954 50.3378 61.8419 50.3284 61.885 50.3097C61.9264 50.2917 61.9641 50.2661 61.996 50.2342C62.0618 50.1677 62.0988 50.0779 62.0988 49.9843C62.0988 49.8907 62.0618 49.8009 61.996 49.7344C61.9641 49.7026 61.9265 49.6772 61.885 49.6596C61.8418 49.6412 61.7953 49.6319 61.7484 49.6323C61.7006 49.632 61.6532 49.6412 61.609 49.6596C61.567 49.6769 61.5287 49.7024 61.4964 49.7344C61.4305 49.8009 61.3935 49.8907 61.3935 49.9843C61.3935 50.0779 61.4305 50.1677 61.4964 50.2342C61.5287 50.2663 61.567 50.292 61.609 50.3097C61.6531 50.3283 61.7005 50.3378 61.7484 50.3374ZM61.775 49.7722C61.8196 49.7693 61.8638 49.7821 61.9 49.8083C61.9144 49.8202 61.9259 49.8353 61.9335 49.8523C61.9411 49.8694 61.9446 49.888 61.9438 49.9066C61.9443 49.9226 61.9415 49.9385 61.9355 49.9533C61.9294 49.9681 61.9204 49.9815 61.9089 49.9926C61.8813 50.0171 61.8463 50.0318 61.8095 50.0343L61.9472 50.193H61.8395L61.7118 50.0354H61.6707V50.193H61.5808V49.7722H61.775ZM61.6707 49.8511V49.9633H61.774C61.7938 49.9642 61.8135 49.9594 61.8306 49.9493C61.8376 49.9447 61.8432 49.9383 61.8469 49.9308C61.8506 49.9233 61.8522 49.9149 61.8517 49.9066C61.8521 49.8984 61.8504 49.8903 61.8467 49.8829C61.843 49.8756 61.8375 49.8694 61.8306 49.8649C61.8135 49.8549 61.7938 49.8501 61.774 49.8511H61.6707ZM56.4051 47.9128C56.4205 47.6438 56.5143 47.3853 56.6749 47.169C56.8355 46.9527 57.0559 46.7882 57.3089 46.6956C57.5619 46.6031 57.8364 46.5866 58.0987 46.6482C58.3609 46.7099 58.5994 46.8469 58.7847 47.0424C58.97 47.238 59.094 47.4834 59.1414 47.7486C59.1889 48.0138 59.1577 48.2871 59.0517 48.5347C58.9457 48.7824 58.7695 48.9936 58.5449 49.1423C58.3203 49.2911 58.0571 49.3708 57.7877 49.3717C57.5989 49.3743 57.4116 49.3377 57.2376 49.2643C57.0637 49.1908 56.9068 49.0822 56.7769 48.9451C56.647 48.808 56.5469 48.6455 56.4829 48.4679C56.4189 48.2902 56.3925 48.1012 56.4051 47.9128ZM22.9171 47.9128V45.634H21.9254V46.187C21.7561 45.9689 21.5371 45.7944 21.2866 45.6783C21.0361 45.5622 20.7614 45.5077 20.4855 45.5195C19.8711 45.5497 19.2917 45.815 18.8675 46.2605C18.4432 46.7061 18.2066 47.2977 18.2066 47.9129C18.2066 48.5281 18.4432 49.1198 18.8675 49.5653C19.2917 50.0109 19.8711 50.2762 20.4855 50.3063C20.7614 50.3181 21.0361 50.2636 21.2866 50.1475C21.5371 50.0313 21.7561 49.8569 21.9254 49.6387V50.1919H22.9171V47.9128ZM19.2269 47.9128C19.2423 47.6438 19.3361 47.3853 19.4967 47.169C19.6573 46.9527 19.8777 46.7882 20.1307 46.6956C20.3837 46.6031 20.6582 46.5866 20.9204 46.6482C21.1827 46.7099 21.4212 46.8469 21.6065 47.0424C21.7918 47.238 21.9158 47.4835 21.9632 47.7486C22.0107 48.0138 21.9795 48.2871 21.8735 48.5347C21.7675 48.7824 21.5913 48.9936 21.3667 49.1423C21.1421 49.2911 20.8789 49.3708 20.6095 49.3717C20.4207 49.3743 20.2334 49.3377 20.0594 49.2643C19.8854 49.1908 19.7286 49.0822 19.5987 48.9451C19.4688 48.808 19.3687 48.6455 19.3047 48.4679C19.2407 48.2902 19.2142 48.1012 19.2269 47.9128Z" fill="#D7D7D7"/>
<path d="M42.5085 10.8965H27.4883V37.8882H42.5085V10.8965Z" fill="#FF5F00"/>
<path d="M28.4442 24.391C28.4418 21.7915 29.0309 19.2256 30.1668 16.8874C31.3027 14.5492 32.9557 12.5001 35.0006 10.8952C32.4682 8.90471 29.427 7.66687 26.2244 7.32314C23.0218 6.9794 19.7872 7.54364 16.8901 8.95137C13.9931 10.3591 11.5505 12.5535 9.84164 15.2838C8.13278 18.0141 7.22656 21.1701 7.22656 24.391C7.22656 27.612 8.13278 30.768 9.84164 33.4983C11.5505 36.2286 13.9931 38.423 16.8901 39.8307C19.7872 41.2384 23.0218 41.8027 26.2244 41.459C29.427 41.1152 32.4682 39.8774 35.0006 37.8869C32.9557 36.282 31.3027 34.2329 30.1668 31.8947C29.0309 29.5565 28.4418 26.9905 28.4442 24.391Z" fill="#EB001B"/>
<path d="M62.7731 24.391C62.7733 27.6119 61.8672 30.7679 60.1584 33.4982C58.4496 36.2285 56.0072 38.4229 53.1102 39.8307C50.2132 41.2384 46.9785 41.8027 43.776 41.4589C40.5735 41.1152 37.5323 39.8774 35 37.8869C37.0431 36.2804 38.6948 34.2309 39.8305 31.8931C40.9662 29.5553 41.5563 26.9901 41.5563 24.391C41.5563 21.7919 40.9662 19.2268 39.8305 16.889C38.6948 14.5512 37.0431 12.5017 35 10.8952C37.5323 8.90471 40.5735 7.66686 43.776 7.32313C46.9785 6.9794 50.2132 7.54366 53.1102 8.9514C56.0072 10.3591 58.4496 12.5536 60.1584 15.2839C61.8672 18.0141 62.7733 21.1701 62.7731 24.391Z" fill="#F79E1B"/>
<path d="M61.1337 35.0315V34.4789H61.3565V34.3663H60.7891V34.4789H61.012V35.0315H61.1337ZM62.2354 35.0315V34.3652H62.0615L61.8614 34.8235L61.6613 34.3652H61.4872V35.0315H61.6101V34.5289L61.7977 34.9622H61.9251L62.1127 34.5278V35.0315H62.2354Z" fill="#F79E1B"/>
</svg>
