<svg width="82" height="28" viewBox="0 0 82 28" fill="none" xmlns="http://www.w3.org/2000/svg">
<g clip-path="url(#clip0_1553_6970)">
<path d="M35.5332 26.6727H28.8906L33.0454 0.828613H39.6876L35.5332 26.6727Z" fill="#D7D7D7"/>
<path d="M59.6134 1.46015C58.3032 0.93723 56.2251 0.359863 53.6555 0.359863C47.0958 0.359863 42.4765 3.87887 42.4481 8.90999C42.3936 12.6219 45.7554 14.6836 48.2698 15.9213C50.8397 17.1861 51.7133 18.0115 51.7133 19.1389C51.6871 20.8702 49.6367 21.6683 47.7242 21.6683C45.0722 21.6683 43.6512 21.2568 41.4917 20.2936L40.617 19.8807L39.6875 25.6821C41.2454 26.3961 44.1158 27.0298 47.0958 27.0575C54.0656 27.0575 58.6032 23.593 58.657 18.2315C58.6835 15.2895 56.9084 13.0352 53.0813 11.1931C50.758 10.0106 49.3352 9.21329 49.3352 8.00338C49.3624 6.90346 50.5386 5.77687 53.1612 5.77687C55.3206 5.72169 56.9073 6.24388 58.1092 6.76643L58.71 7.04086L59.6134 1.46015Z" fill="#D7D7D7"/>
<path d="M68.4412 17.517C68.9883 16.0323 71.0932 10.2861 71.0932 10.2861C71.0656 10.3413 71.6392 8.77397 71.9672 7.81181L72.4314 10.0387C72.4314 10.0387 73.6893 16.2249 73.9625 17.517C72.9243 17.517 69.7532 17.517 68.4412 17.517ZM76.6406 0.828613H71.5026C69.9181 0.828613 68.7144 1.29562 68.0308 2.97291L58.1641 26.6723H65.1339C65.1339 26.6723 66.2814 23.4825 66.528 22.7955C67.2926 22.7955 74.0729 22.7955 75.0565 22.7955C75.2472 23.7029 75.8491 26.6723 75.8491 26.6723H81.9995L76.6406 0.828613Z" fill="#D7D7D7"/>
<path d="M23.3413 0.828613L16.8361 18.4518L16.1252 14.8776C14.9225 10.7535 11.1506 6.27266 6.94141 4.04469L12.9 26.6453H19.9243L30.3653 0.828613H23.3413Z" fill="#D7D7D7"/>
<path d="M10.7966 0.828613H0.109335L0 1.3508C8.33673 3.49546 13.858 8.66507 16.1264 14.8787L13.8031 3.00104C13.4206 1.35043 12.2452 0.883061 10.7966 0.828613Z" fill="#D7D7D7"/>
</g>
<defs>
<clipPath id="clip0_1553_6970">
<rect width="82" height="26.6977" fill="white" transform="translate(0 0.359863)"/>
</clipPath>
</defs>
</svg>
